<?xml version="1.0" encoding="UTF-8"?>
<svg width="32" height="32" viewBox="0 0 32 32" fill="none" xmlns="http://www.w3.org/2000/svg">
  <circle cx="16" cy="16" r="14" fill="url(#metallic-gradient)"/>
  <path d="M16 2C8.27 2 2 8.27 2 16C2 23.73 8.27 30 16 30C23.73 30 30 23.73 30 16C30 8.27 23.73 2 16 2ZM16 28C9.37 28 4 22.63 4 16C4 9.37 9.37 4 16 4C22.63 4 28 9.37 28 16C28 22.63 22.63 28 16 28Z" fill="url(#metallic-gradient)"/>
  <path d="M16 4C9.37 4 4 9.37 4 16C4 22.63 9.37 28 16 28C22.63 28 28 22.63 28 16C28 9.37 22.63 4 16 4Z" fill="url(#metallic-gradient)"/>
  <circle cx="16" cy="10" r="6" fill="url(#metallic-gradient)"/>
  <circle cx="16" cy="22" r="6" fill="url(#metallic-gradient)"/>
  <circle cx="16" cy="10" r="2" fill="url(#metallic-gradient)"/>
  <circle cx="16" cy="22" r="2" fill="url(#metallic-gradient)"/>
  <defs>
    <linearGradient id="metallic-gradient" x1="0" y1="0" x2="32" y2="32" gradientUnits="userSpaceOnUse">
      <stop offset="0%" stop-color="#4B5563"/>
      <stop offset="50%" stop-color="#9CA3AF"/>
      <stop offset="100%" stop-color="#4B5563"/>
    </linearGradient>
  </defs>
</svg> 